<svg width="30" height="30" viewBox="0 0 30 30" fill="none" xmlns="http://www.w3.org/2000/svg">
<path d="M22.4531 10.6094C22.6641 10.6094 22.875 10.4336 22.875 10.1875V9.0625C22.875 8.85156 22.6641 8.64062 22.4531 8.64062H7.54688C7.30078 8.64062 7.125 8.85156 7.125 9.0625V10.1875C7.125 10.4336 7.30078 10.6094 7.54688 10.6094H22.4531ZM22.4531 16.2344C22.6641 16.2344 22.875 16.0586 22.875 15.8125V14.6875C22.875 14.4766 22.6641 14.2656 22.4531 14.2656H7.54688C7.30078 14.2656 7.125 14.4766 7.125 14.6875V15.8125C7.125 16.0586 7.30078 16.2344 7.54688 16.2344H22.4531ZM22.4531 21.8594C22.6641 21.8594 22.875 21.6836 22.875 21.4375V20.3125C22.875 20.1016 22.6641 19.8906 22.4531 19.8906H7.54688C7.30078 19.8906 7.125 20.1016 7.125 20.3125V21.4375C7.125 21.6836 7.30078 21.8594 7.54688 21.8594H22.4531Z" fill="#F17228"/>
</svg>
