<svg width="40" height="40" viewBox="0 0 40 40" fill="none" xmlns="http://www.w3.org/2000/svg">
<path d="M28.8594 27.7383L24.6055 23.4844C24.5 23.4141 24.3945 23.3438 24.2891 23.3438H23.832C24.9219 22.0781 25.625 20.3906 25.625 18.5625C25.625 14.5547 22.3203 11.25 18.3125 11.25C14.2695 11.25 11 14.5547 11 18.5625C11 22.6055 14.2695 25.875 18.3125 25.875C20.1406 25.875 21.793 25.207 23.0938 24.1172V24.5742C23.0938 24.6797 23.1289 24.7852 23.1992 24.8906L27.4531 29.1445C27.6289 29.3203 27.9102 29.3203 28.0508 29.1445L28.8594 28.3359C29.0352 28.1953 29.0352 27.9141 28.8594 27.7383ZM18.3125 24.1875C15.1836 24.1875 12.6875 21.6914 12.6875 18.5625C12.6875 15.4688 15.1836 12.9375 18.3125 12.9375C21.4062 12.9375 23.9375 15.4688 23.9375 18.5625C23.9375 21.6914 21.4062 24.1875 18.3125 24.1875Z" fill="#F17228"/>
</svg>
